<svg width="205" height="214" viewBox="0 0 205 214" fill="none" xmlns="http://www.w3.org/2000/svg">
<path d="M100.134 181.878V201.432C100.134 202.654 99.5744 203.809 98.6162 204.568L89.5 211.784C89.5001 209.962 90.3194 208.236 91.7314 207.084L97.918 202.037V181.878L150.421 134.692L110.333 135.296C107.751 135.335 105.265 136.281 103.311 137.968L78.3936 159.479C76.5547 161.066 74.2066 161.94 71.7773 161.94L101.621 136.247C103.951 134.242 106.915 133.126 109.989 133.099L155.959 132.697L100.134 181.878ZM106.212 15.2404C130.629 27.6701 146.163 34.4993 176.783 38.3254V110.544L163.9 122.824C163.077 123.61 162.626 124.708 162.662 125.846L163.224 143.668C164.528 144.034 165.485 145.233 165.485 146.654C165.485 148.367 164.097 149.756 162.384 149.756C160.671 149.756 159.282 148.367 159.282 146.654C159.282 145.428 159.995 144.371 161.028 143.867L160.665 126.2C160.631 124.55 161.278 122.959 162.454 121.801L174.79 109.658V40.5402C144.418 35.7338 130.708 30.0619 109.203 19.4728C107.555 18.6611 106.427 17.0652 106.212 15.2404ZM162.384 144.985C161.462 144.985 160.714 145.732 160.714 146.654C160.714 147.577 161.462 148.324 162.384 148.324C163.306 148.324 164.054 147.577 164.054 146.654C164.054 145.732 163.306 144.985 162.384 144.985Z" fill="url(#paint0_linear_4683_10166)"/>
<path d="M87.7266 0C99.6612 5.67268 103.858 9.54813 101.24 19.2734C126.26 32.1526 141.18 37.3651 169.251 43.4199V106.557L150.021 125.595C148.148 127.448 145.619 128.488 142.984 128.488H108.601C105.279 128.488 102.066 129.67 99.5352 131.82L60.7002 164.82L108.107 165.263L93.4863 179.22H63.1367V178.776H59.1494V182.321H63.1367V181.878H92.3789V201.373C88.7363 204.315 86.6192 208.746 86.6191 213.429V214L62.6934 197.385C23.8366 175.636 9.27437 160.329 0 125.83V37.4385C37.1428 32.4074 56.7608 25.574 87.7266 0ZM82.8535 200.265C81.3853 200.265 80.1953 201.456 80.1953 202.924C80.1955 204.392 81.3855 205.582 82.8535 205.582C84.3215 205.582 85.5115 204.392 85.5117 202.924C85.5117 201.456 84.3216 200.265 82.8535 200.265ZM19.7158 77.5361H34.5586L18.165 163.27L47.6289 164.599L90.8281 127.603H62.6934L71.998 77.5361H152.414L158.617 46.5215H25.6973L19.7158 77.5361ZM89.0557 6.20312C87.5875 6.20317 86.3975 7.39317 86.3975 8.86133C86.3975 10.3295 87.5875 11.5195 89.0557 11.5195C90.5238 11.5195 91.7138 10.3295 91.7139 8.86133C91.7139 7.39314 90.5238 6.20312 89.0557 6.20312Z" fill="url(#paint1_linear_4683_10166)"/>
<defs>
<linearGradient id="paint0_linear_4683_10166" x1="143.666" y1="43.9564" x2="68.2062" y2="117.758" gradientUnits="userSpaceOnUse">
<stop stop-color="white"/>
<stop offset="1" stop-color="#009BFA"/>
</linearGradient>
<linearGradient id="paint1_linear_4683_10166" x1="115.872" y1="31.2664" x2="39.0127" y2="142.544" gradientUnits="userSpaceOnUse">
<stop stop-color="white"/>
<stop offset="1" stop-color="#009BFA"/>
</linearGradient>
</defs>
</svg>
