<svg width="1368" height="981" viewBox="0 0 1368 981" fill="none" xmlns="http://www.w3.org/2000/svg">
<rect width="1368" height="981" fill="black"/>
<path d="M725.655 727.796V794.245C725.655 795.467 725.096 796.622 724.138 797.381L691.815 822.97V819.027C691.815 815.723 693.302 812.593 695.862 810.504L718.605 791.95V727.796L885.688 577.634L749.392 579.689C746.81 579.728 744.324 580.673 742.369 582.36L650.779 661.431C648.6 663.312 645.817 664.348 642.938 664.348H635.416L738.262 575.805C740.591 573.799 743.556 572.684 746.63 572.657L903.312 571.289L725.655 727.796ZM745 197.5C822.703 237.056 872.136 258.787 969.581 270.963V500.79L925.757 542.56C924.933 543.345 924.483 544.445 924.519 545.582L926.433 606.202C930.583 607.369 933.628 611.18 933.628 615.703C933.628 621.154 929.208 625.572 923.758 625.572C918.307 625.572 913.888 621.154 913.888 615.703C913.888 611.799 916.155 608.424 919.445 606.823L918.171 544.97C918.137 543.32 918.784 541.728 919.96 540.57L963.236 497.97V278.013C864.924 262.455 821.472 244.047 750.974 209.221C747.944 207.724 745.861 204.785 745.465 201.429L745 197.5ZM923.758 610.389C920.823 610.389 918.443 612.768 918.443 615.703C918.444 618.638 920.823 621.018 923.758 621.018C926.692 621.017 929.072 618.638 929.072 615.703C929.072 612.768 926.693 610.389 923.758 610.389Z" fill="url(#paint0_linear_4681_9921)"/>
<path d="M686.176 149C724.156 167.052 737.51 179.385 729.18 210.334C808.8 251.32 856.279 267.909 945.611 287.178V488.1L878.035 555C876.163 556.854 873.635 557.894 871 557.894H741.375C738.054 557.894 734.841 559.075 732.31 561.226L600.167 673.512L751.035 674.922L704.506 719.336H607.922V717.926H595.232V729.206H607.922V727.796H700.98V789.835L690.456 798.336C685.52 802.323 682.65 808.328 682.65 814.673V830.02L606.512 777.146C482.856 707.934 436.514 659.219 407 549.434V268.144C525.201 252.133 587.632 230.385 686.176 149ZM670.666 786.311C665.994 786.311 662.206 790.098 662.206 794.771C662.206 799.443 665.994 803.229 670.666 803.229C675.338 803.229 679.126 799.443 679.126 794.771C679.126 790.098 675.338 786.311 670.666 786.311ZM469.744 395.746H516.979L464.81 668.577L558.572 672.807L696.046 555.074H606.512L636.121 395.746H892.032L911.772 297.048H488.778L469.744 395.746ZM690.405 168.739C685.733 168.739 681.945 172.527 681.945 177.199C681.945 181.871 685.733 185.659 690.405 185.659C695.078 185.659 698.865 181.871 698.865 177.199C698.865 172.527 695.077 168.739 690.405 168.739Z" fill="url(#paint1_linear_4681_9921)"/>
<path d="M688.046 100C565.753 172.367 494.092 195.379 362.506 215.036C362.506 439.938 356.95 569.192 382.651 611.199C394.273 642.792 420.16 681.633 457.051 720.419C478.169 742.621 615.272 839.979 689.347 871C900.526 763.719 964.202 690.044 992.169 611.199C1013.06 576.381 1014.37 463.491 1012.29 215.682C878.577 197.023 808.166 169.499 688.046 100Z" stroke="url(#paint2_linear_4681_9921)" stroke-width="13"/>
<defs>
<linearGradient id="paint0_linear_4681_9921" x1="864.191" y1="288.884" x2="624.052" y2="523.746" gradientUnits="userSpaceOnUse">
<stop stop-color="#0062FF"/>
<stop offset="1" stop-color="#009BFA"/>
</linearGradient>
<linearGradient id="paint1_linear_4681_9921" x1="775.742" y1="248.5" x2="531.15" y2="602.623" gradientUnits="userSpaceOnUse">
<stop stop-color="#0062FF"/>
<stop offset="1" stop-color="#009BFA"/>
</linearGradient>
<linearGradient id="paint2_linear_4681_9921" x1="807.685" y1="212.647" x2="537.614" y2="630.093" gradientUnits="userSpaceOnUse">
<stop stop-color="#0062FF"/>
<stop offset="1" stop-color="#009BFA"/>
</linearGradient>
</defs>
</svg>
